# xmcd CD database file
#
# Track frame offsets:
#	150
#	12840
#	25575
#	40125
#	54240
#	66375
#	77940
#	92175
#	111390
#	121950
#	132045
#
# Disc length: 1896 seconds
#
# Revision: 0
# Processed by: cddbd v1.5.1PL0 Copyright (c) Steve Scherf et al.
# Submitted via: CDex 1.51
#
DISCID=8b07660b
DTITLE=Lynn Anderson - I've Never Loved Anyone More
DYEAR=1900
DGENRE=Country
TTITLE0=I've Never Loved Anyone More
TTITLE1=I'm Growing Up All Over Again
TTITLE2=Faithless Love
TTITLE3=The Best Kept Secret In Santa Fe
TTITLE4=He Worshipped Me
TTITLE5=He Turns It Into Love Again
TTITLE6=I'm Not Lisa
TTITLE7=Love Has No Pride
TTITLE8=We've Got It All Together Now
TTITLE9=Life's No Bed Of Roses
TTITLE10=A Good Old Country Song
EXTD=
EXTT0=
EXTT1=
EXTT2=
EXTT3=
EXTT4=
EXTT5=
EXTT6=
EXTT7=
EXTT8=
EXTT9=
EXTT10=
PLAYORDER=
